<?xml version="1.0" standalone="no"?><!DOCTYPE svg PUBLIC "-//W3C//DTD SVG 1.1//EN" "http://www.w3.org/Graphics/SVG/1.1/DTD/svg11.dtd"><svg t="1610963497827" class="icon" viewBox="0 0 1024 1024" version="1.1" xmlns="http://www.w3.org/2000/svg" p-id="1846" xmlns:xlink="http://www.w3.org/1999/xlink" width="32" height="32"><defs><style type="text/css"></style></defs><path d="M64.532459 511.40739a63.893258 63.893258 0 0 0 63.893259-63.893258V383.620873a63.893258 63.893258 0 0 1 63.893258-63.893258h612.736347l-83.061236 82.422303a63.893258 63.893258 0 0 0 0 90.728427 63.893258 63.893258 0 0 0 90.728427 0l191.679775-191.679775a63.893258 63.893258 0 0 0 0-90.728427l-191.679775-191.679775a63.893258 63.893258 0 0 0-90.728427 90.728427L805.055323 191.941098H192.318976a191.679775 191.679775 0 0 0-191.679775 191.679775v63.893259a63.893258 63.893258 0 0 0 63.893258 63.893258z" fill="#f4ea2a" p-id="1847"></path><path d="M959.038076 511.40739a63.893258 63.893258 0 0 0-63.893258 63.893258v63.893259a63.893258 63.893258 0 0 1-63.893259 63.893258H218.515212l83.061236-81.783371a63.893258 63.893258 0 0 0 0-90.089494 63.893258 63.893258 0 0 0-90.728427 0l-191.679775 191.679775a63.893258 63.893258 0 0 0 0 90.728427l191.679775 191.679775a63.893258 63.893258 0 0 0 90.728427-91.36736L218.515212 830.873682H831.251559a191.679775 191.679775 0 0 0 191.679775-191.679775V575.300648a63.893258 63.893258 0 0 0-63.893258-63.893258z" fill="#f4ea2a" p-id="1848"></path></svg>