<?xml version="1.0" standalone="no"?><!DOCTYPE svg PUBLIC "-//W3C//DTD SVG 1.1//EN" "http://www.w3.org/Graphics/SVG/1.1/DTD/svg11.dtd"><svg t="1610962911282" class="icon" viewBox="0 0 1024 1024" version="1.1" xmlns="http://www.w3.org/2000/svg" p-id="2689" xmlns:xlink="http://www.w3.org/1999/xlink" width="32" height="32"><defs><style type="text/css"></style></defs><path d="M536.310615 5.11991a63.99888 63.99888 0 0 0-69.75878 13.439765L229.755979 255.99552H63.99888a63.99888 63.99888 0 0 0-63.99888 63.99888v383.99328a63.99888 63.99888 0 0 0 63.99888 63.99888h165.757099l236.795856 237.435845A63.99888 63.99888 0 0 0 511.99104 1023.98208a53.759059 53.759059 0 0 0 24.319575-5.11991A63.99888 63.99888 0 0 0 575.98992 959.9832V63.99888a63.99888 63.99888 0 0 0-39.679305-58.87897zM191.99664 639.9888H127.99776V383.99328h63.99888z m255.99552 165.757099l-127.99776-127.99776V346.233941l127.99776-127.99776zM914.543995 511.99104l90.87841-90.238421a63.99888 63.99888 0 1 0-90.87841-90.878409l-90.23842 90.878409-90.238421-90.878409a63.99888 63.99888 0 0 0-90.87841 90.878409L734.067154 511.99104l-90.87841 90.238421a63.99888 63.99888 0 0 0 90.87841 90.87841l90.238421-90.87841 90.23842 90.87841a63.99888 63.99888 0 1 0 90.87841-90.87841z" fill="#f4ea2a" p-id="2690"></path></svg>