<?xml version="1.0" standalone="no"?><!DOCTYPE svg PUBLIC "-//W3C//DTD SVG 1.1//EN" "http://www.w3.org/Graphics/SVG/1.1/DTD/svg11.dtd"><svg t="1610961319661" class="icon" viewBox="0 0 1279 1024" version="1.1" xmlns="http://www.w3.org/2000/svg" p-id="1992" xmlns:xlink="http://www.w3.org/1999/xlink" width="39.96875" height="32"><defs><style type="text/css"></style></defs><path d="M595.853642 1021.410724a91.07579 91.07579 0 0 1-39.154078-9.362932A85.11756 85.11756 0 0 1 510.736082 936.293163V754.99276l-378.773144 255.352681a85.11756 85.11756 0 0 1-85.11756 4.255878A85.11756 85.11756 0 0 1 0.03072 936.293163V85.11756A85.11756 85.11756 0 0 1 134.516465 16.172336L510.736082 284.292651V85.11756A85.11756 85.11756 0 0 1 645.221827 16.172336l595.822922 425.587802a85.11756 85.11756 0 0 1 0 137.890448l-595.822922 425.587801A85.11756 85.11756 0 0 1 595.853642 1021.410724zM170.265841 250.245627v526.877699l340.470241-227.263886V493.68185z m510.705362 520.919469L1045.274361 510.705362 680.971203 250.245627z" fill="#383B48" p-id="1993"></path></svg>