<svg id="图层_1" data-name="图层 1" xmlns="http://www.w3.org/2000/svg" xmlns:xlink="http://www.w3.org/1999/xlink" viewBox="0 0 30.15 31.17"><defs><style>.cls-1{fill:none;}.cls-2{fill:#f4ea2a;}.cls-3{clip-path:url(#clip-path);}.cls-4{fill:#1296db;}</style><clipPath id="clip-path"><rect class="cls-1" x="11.11" y="19.71" width="2.67" height="8.93"/></clipPath></defs><title>note</title><path class="cls-2" d="M20.51,5.66A.47.47,0,1,0,21,5.19.47.47,0,0,0,20.51,5.66Z"/><path class="cls-2" d="M29,9.22A15.08,15.08,0,1,0,1.19,20.94a14.54,14.54,0,0,0,1.28,2.4V27.1a4.07,4.07,0,0,0,4.06,4.07,4,4,0,0,0,3.13-1.56,3.74,3.74,0,0,0,.66-3.23A13.79,13.79,0,0,1,10,24.14a12.63,12.63,0,0,1,.36-2.24,3.76,3.76,0,0,0-.66-3.24A4,4,0,0,0,4,18a4.17,4.17,0,0,0-.92,1,12.79,12.79,0,0,1-.35-6.43,13.48,13.48,0,0,1,9.91-9.79A12.6,12.6,0,0,1,27.05,19a4,4,0,0,0-5.55-1.2,3.75,3.75,0,0,0-1.66,4.15,13.62,13.62,0,0,1,.36,2.24,13.79,13.79,0,0,1-.36,2.24,3.77,3.77,0,0,0,.65,3.23,4,4,0,0,0,7.2-2.46h0V23.34A15.08,15.08,0,0,0,29,9.22ZM5,21.15a1.53,1.53,0,0,1,1.46-1.54,1.51,1.51,0,0,1,1.26.59,1.24,1.24,0,0,1,.21,1.07,15.31,15.31,0,0,0-.44,2.87A15.31,15.31,0,0,0,7.9,27a1.24,1.24,0,0,1-.21,1.07,1.5,1.5,0,0,1-1.2.59A1.52,1.52,0,0,1,5,27.15H5Zm20.22,6a1.53,1.53,0,0,1-1.46,1.54,1.51,1.51,0,0,1-1.26-.59A1.24,1.24,0,0,1,22.25,27a14.54,14.54,0,0,0,.45-2.87,14.54,14.54,0,0,0-.45-2.87,1.24,1.24,0,0,1,.22-1.07,1.51,1.51,0,0,1,1.26-.59,1.53,1.53,0,0,1,1.46,1.54Z"/><path class="cls-2" d="M19.42,4.34a11.59,11.59,0,0,0-14,4.37.47.47,0,0,0,.76.55.05.05,0,0,0,0,0,10.68,10.68,0,0,1,8.91-4.79,10.45,10.45,0,0,1,4,.78A.47.47,0,0,0,19.68,5a.48.48,0,0,0-.25-.62Z"/><g class="cls-3"><path class="cls-4" d="M15.08,21.28a1,1,0,0,0-1,1v3.89a1,1,0,0,0,1,.9,1,1,0,0,0,.91-1v-3.8a1,1,0,0,0-.91-1ZM12.51,22a1,1,0,0,0-1,1v2.39a.13.13,0,0,0,0,.06,1,1,0,0,0,1,.9,1,1,0,0,0,.9-1V23a1,1,0,0,0-.9-1Z"/><path class="cls-4" d="M17.64,20.3c-.53,0-1,.58-1,1.29v5.23c0,.71.49,1.25,1,1.21s.91-.65.91-1.32v-5.1a1.24,1.24,0,0,0-.91-1.31Zm-2.57,1c-.53,0-1,.58-1,1.3v3.29c0,.71.49,1.25,1,1.21s.9-.64.9-1.31V22.58c0-.67-.4-1.27-.9-1.31Z"/></g></svg>