<?xml version="1.0" standalone="no"?><!DOCTYPE svg PUBLIC "-//W3C//DTD SVG 1.1//EN" "http://www.w3.org/Graphics/SVG/1.1/DTD/svg11.dtd"><svg t="1610961303523" class="icon" viewBox="0 0 1024 1024" version="1.1" xmlns="http://www.w3.org/2000/svg" p-id="1702" xmlns:xlink="http://www.w3.org/1999/xlink" width="32" height="32"><defs><style type="text/css"></style></defs><path d="M877.714286 1024H146.285714a146.285714 146.285714 0 0 1-146.285714-146.285714V146.285714a146.285714 146.285714 0 0 1 146.285714-146.285714h731.428572a146.285714 146.285714 0 0 1 146.285714 146.285714v731.428572a146.285714 146.285714 0 0 1-146.285714 146.285714zM146.285714 877.714286h731.428572V146.285714H146.285714z m512-73.142857a73.142857 73.142857 0 0 1-73.142857-73.142858V292.571429a73.142857 73.142857 0 0 1 146.285714 0v438.857142a73.142857 73.142857 0 0 1-73.142857 73.142858z m-292.571428 0a73.142857 73.142857 0 0 1-73.142857-73.142858V292.571429a73.142857 73.142857 0 0 1 146.285714 0v438.857142a73.142857 73.142857 0 0 1-73.142857 73.142858z" fill="#383B48" p-id="1703"></path></svg>