<?xml version="1.0" standalone="no"?><!DOCTYPE svg PUBLIC "-//W3C//DTD SVG 1.1//EN" "http://www.w3.org/Graphics/SVG/1.1/DTD/svg11.dtd"><svg t="1610962884396" class="icon" viewBox="0 0 1024 1024" version="1.1" xmlns="http://www.w3.org/2000/svg" p-id="2302" xmlns:xlink="http://www.w3.org/1999/xlink" width="32" height="32"><defs><style type="text/css"></style></defs><path d="M182.857143 1024a73.142857 73.142857 0 0 1-34.377143-8.777143A73.142857 73.142857 0 0 1 109.714286 950.857143V73.142857A73.142857 73.142857 0 0 1 148.48 8.777143a73.142857 73.142857 0 0 1 73.142857 3.657143l658.285714 438.857143A73.142857 73.142857 0 0 1 914.285714 512a73.142857 73.142857 0 0 1-32.914285 60.708571l-658.285715 438.857143A73.142857 73.142857 0 0 1 182.857143 1024zM256 209.92v604.16L709.485714 512z" fill="#f4ea2a" p-id="2303"></path></svg>