<?xml version="1.0" standalone="no"?><!DOCTYPE svg PUBLIC "-//W3C//DTD SVG 1.1//EN" "http://www.w3.org/Graphics/SVG/1.1/DTD/svg11.dtd"><svg t="1610962785449" class="icon" viewBox="0 0 1280 1024" version="1.1" xmlns="http://www.w3.org/2000/svg" p-id="1335" xmlns:xlink="http://www.w3.org/1999/xlink" width="40" height="32"><defs><style type="text/css"></style></defs><path d="M1194.666667 1024a85.333333 85.333333 0 0 1-49.493334-16.213333L768 738.986667V938.666667a85.333333 85.333333 0 0 1-134.826667 69.12l-597.333333-426.666667a85.333333 85.333333 0 0 1 0-138.24l597.333333-426.666667A85.333333 85.333333 0 0 1 768 85.333333v195.413334L1146.026667 15.36A85.333333 85.333333 0 0 1 1280 85.333333v853.333334a85.333333 85.333333 0 0 1-46.08 75.946666A91.306667 91.306667 0 0 1 1194.666667 1024zM768 530.773333l341.333333 242.346667V249.173333l-341.333333 238.933334zM232.106667 512L597.333333 773.12V250.88z" fill="#f4ea2a" p-id="1336"></path></svg>