<?xml version="1.0" standalone="no"?><!DOCTYPE svg PUBLIC "-//W3C//DTD SVG 1.1//EN" "http://www.w3.org/Graphics/SVG/1.1/DTD/svg11.dtd"><svg t="1610962807747" class="icon" viewBox="0 0 1170 1024" version="1.1" xmlns="http://www.w3.org/2000/svg" p-id="1721" xmlns:xlink="http://www.w3.org/1999/xlink" width="36.5625" height="32"><defs><style type="text/css"></style></defs><path d="M950.616094 1023.999269a73.124315 73.124315 0 0 1-51.918264-21.206052 73.124315 73.124315 0 0 1 0-103.836527l21.937295-21.206051H731.243149a73.124315 73.124315 0 0 1-62.155668-34.368428L325.403201 292.75612H73.124315a73.124315 73.124315 0 0 1 0-146.24863h292.49726a73.124315 73.124315 0 0 1 62.155667 34.368428l121.386363 193.779434 119.923876-193.779434A73.124315 73.124315 0 0 1 731.243149 146.50749h189.391976l-21.937295-21.206051A73.124315 73.124315 0 0 1 1002.534357 21.464911l146.24863 146.24863a73.124315 73.124315 0 0 1 0 103.836527l-146.24863 146.24863a73.124315 73.124315 0 0 1-103.836527-103.836527l21.937295-21.206051h-146.24863l-138.936198 219.372944 136.011225 219.372945h146.24863l-21.937294-21.206051a73.124315 73.124315 0 0 1 103.836527-103.836527l146.24863 146.248629a73.124315 73.124315 0 0 1 0 103.836528l-146.24863 146.248629A73.124315 73.124315 0 0 1 950.616094 1023.999269z m-584.994519-146.24863H73.124315a73.124315 73.124315 0 0 1 0-146.24863h253.010129l25.593511-40.218373a73.124315 73.124315 0 0 1 122.848849 79.705503l-47.530805 73.124315A73.124315 73.124315 0 0 1 365.621575 877.750639z" fill="#383B48" p-id="1722"></path></svg>